<svg width="7" height="8" viewBox="0 0 7 8" fill="none" xmlns="http://www.w3.org/2000/svg">
<g clip-path="url(#clip0_172_714)">
<path d="M5.88392 2.41956H4.06407C3.90286 2.41967 3.74427 2.46037 3.60292 2.53789C3.46157 2.61541 3.34201 2.72727 3.25525 2.86314C3.1685 2.72727 3.04893 2.61541 2.90758 2.53789C2.76623 2.46037 2.60764 2.41967 2.44643 2.41956H0.626584C0.586363 2.41956 0.547789 2.43553 0.519348 2.46397C0.490908 2.49241 0.47493 2.53099 0.47493 2.57121V6.21091C0.47493 6.25113 0.490908 6.2897 0.519348 6.31814C0.547789 6.34658 0.586363 6.36256 0.626584 6.36256H2.44643C2.62072 6.36256 2.78788 6.4318 2.91112 6.55504C3.03436 6.67828 3.1036 6.84544 3.1036 7.01973C3.1036 7.05995 3.11958 7.09852 3.14802 7.12696C3.17646 7.1554 3.21503 7.17138 3.25525 7.17138C3.29547 7.17138 3.33405 7.1554 3.36249 7.12696C3.39093 7.09852 3.40691 7.05995 3.40691 7.01973C3.40691 6.84544 3.47614 6.67828 3.59939 6.55504C3.72263 6.4318 3.88978 6.36256 4.06407 6.36256H5.88392C5.92414 6.36256 5.96272 6.34658 5.99116 6.31814C6.0196 6.2897 6.03558 6.25113 6.03558 6.21091V2.57121C6.03558 2.53099 6.0196 2.49241 5.99116 2.46397C5.96272 2.43553 5.92414 2.41956 5.88392 2.41956ZM2.44643 6.05925H0.778238V2.72286H2.44643C2.62072 2.72286 2.78788 2.7921 2.91112 2.91534C3.03436 3.03859 3.1036 3.20574 3.1036 3.38003V6.31984C2.92584 6.15228 2.69072 6.05905 2.44643 6.05925ZM5.73227 6.05925H4.06407C3.81976 6.05915 3.58465 6.15247 3.40691 6.3201V3.38003C3.40691 3.20574 3.47614 3.03859 3.59939 2.91534C3.72263 2.7921 3.88978 2.72286 4.06407 2.72286H5.73227V6.05925Z" fill="#AE57F4"/>
</g>
<defs>
<clipPath id="clip0_172_714">
<rect width="6.47057" height="6.47057" fill="white" transform="translate(-0.0043602 0.816895)"/>
</clipPath>
</defs>
</svg>
