<svg width="9" height="9" viewBox="0 0 9 9" fill="none" xmlns="http://www.w3.org/2000/svg">
<path d="M6.59183 6.87967L4.61682 4.90466C4.45912 5.03902 4.27777 5.14299 4.07276 5.21658C3.86775 5.29018 3.66169 5.32697 3.45458 5.32697C2.94953 5.32697 2.52206 5.15214 2.17218 4.80247C1.8223 4.4528 1.64736 4.02544 1.64736 3.52038C1.64736 3.01533 1.82209 2.58776 2.17155 2.23767C2.52101 1.88758 2.94827 1.71232 3.45332 1.7119C3.95838 1.71148 4.38605 1.88642 4.73635 2.23672C5.08665 2.58702 5.2618 3.01459 5.2618 3.51944C5.2618 3.73853 5.22301 3.95058 5.14542 4.15559C5.06784 4.3606 4.96586 4.53596 4.83949 4.68167L6.8145 6.65637L6.59183 6.87967ZM3.4549 5.01126C3.87332 5.01126 4.22657 4.86723 4.51463 4.57917C4.80269 4.29111 4.94672 3.93776 4.94672 3.51912C4.94672 3.10048 4.80269 2.74724 4.51463 2.45939C4.22657 2.17154 3.87332 2.02751 3.4549 2.0273C3.03647 2.02709 2.68312 2.17112 2.39485 2.45939C2.10658 2.74766 1.96255 3.10091 1.96276 3.51912C1.96297 3.93734 2.107 4.29058 2.39485 4.57885C2.6827 4.86713 3.03595 5.01116 3.45458 5.01095" fill="#AE57F4"/>
</svg>
