<svg width="8" height="9" viewBox="0 0 8 9" fill="none" xmlns="http://www.w3.org/2000/svg">
<path d="M6.49853 4.3968L5.42811 5.32045L5.75423 6.70177C5.77223 6.77676 5.76759 6.85539 5.74092 6.92775C5.71424 7.0001 5.66672 7.06292 5.60436 7.10828C5.542 7.15364 5.46759 7.1795 5.39054 7.18259C5.31348 7.18569 5.23724 7.16588 5.17145 7.12566L3.9702 6.38636L2.76823 7.12566C2.70245 7.16564 2.6263 7.18527 2.54938 7.18206C2.47246 7.17885 2.39821 7.15296 2.33597 7.10764C2.27374 7.06232 2.22631 6.9996 2.19965 6.92738C2.17299 6.85515 2.1683 6.77666 2.18616 6.70177L2.51347 5.32045L1.44305 4.3968C1.38485 4.34649 1.34275 4.28015 1.32202 4.20606C1.30129 4.13197 1.30285 4.05342 1.3265 3.98021C1.35015 3.907 1.39484 3.84238 1.455 3.79442C1.51516 3.74646 1.58811 3.71729 1.66475 3.71054L3.06819 3.59732L3.60958 2.28712C3.63889 2.21572 3.68876 2.15464 3.75287 2.11165C3.81698 2.06867 3.89242 2.04572 3.9696 2.04572C4.04679 2.04572 4.12223 2.06867 4.18633 2.11165C4.25044 2.15464 4.30032 2.21572 4.32962 2.28712L4.87078 3.59732L6.27422 3.71054C6.35101 3.71704 6.42417 3.74605 6.48455 3.79394C6.54493 3.84183 6.58982 3.90648 6.61362 3.97978C6.63742 4.05308 6.63906 4.13177 6.61833 4.20599C6.5976 4.28022 6.55543 4.34667 6.4971 4.39704L6.49853 4.3968Z" fill="#FFD700"/>
</svg>
