<svg width="17" height="4" viewBox="0 0 17 4" fill="none" xmlns="http://www.w3.org/2000/svg">
<path d="M2.69679 2.33674L2.1534 2.87139L2.31895 3.67096C2.32808 3.71437 2.32573 3.75988 2.31219 3.80176C2.29865 3.84365 2.27452 3.88001 2.24287 3.90627C2.21121 3.93252 2.17344 3.94749 2.13432 3.94928C2.09521 3.95107 2.0565 3.9396 2.0231 3.91633L1.4133 3.48838L0.803132 3.91633C0.769735 3.93947 0.731078 3.95083 0.692031 3.94897C0.652984 3.94712 0.615291 3.93213 0.583699 3.9059C0.552107 3.87966 0.528028 3.84336 0.514495 3.80155C0.500962 3.75974 0.49858 3.71431 0.507648 3.67096L0.673805 2.87139L0.130414 2.33674C0.100866 2.30762 0.0794956 2.26922 0.0689729 2.22633C0.0584501 2.18345 0.0592411 2.13798 0.071247 2.0956C0.0832529 2.05322 0.105942 2.01582 0.13648 1.98806C0.167018 1.9603 0.204052 1.94341 0.242957 1.93951L0.955402 1.87396L1.23024 1.11557C1.24511 1.07423 1.27043 1.03888 1.30297 1.014C1.33552 0.989116 1.37381 0.97583 1.413 0.97583C1.45218 0.97583 1.49048 0.989116 1.52302 1.014C1.55556 1.03888 1.58088 1.07423 1.59576 1.11557L1.87047 1.87396L2.58292 1.93951C2.6219 1.94326 2.65904 1.96006 2.68969 1.98778C2.72034 2.0155 2.74313 2.05292 2.75521 2.09535C2.76729 2.13778 2.76812 2.18333 2.7576 2.22629C2.74708 2.26926 2.72567 2.30773 2.69606 2.33688L2.69679 2.33674Z" fill="#FFD700"/>
<path d="M6.21108 2.33674L5.66769 2.87139L5.83324 3.67096C5.84238 3.71437 5.84002 3.75988 5.82648 3.80176C5.81294 3.84365 5.78882 3.88001 5.75716 3.90627C5.7255 3.93252 5.68773 3.94749 5.64862 3.94928C5.6095 3.95107 5.5708 3.9396 5.5374 3.91633L4.92759 3.48838L4.31743 3.91633C4.28403 3.93947 4.24537 3.95083 4.20632 3.94897C4.16728 3.94712 4.12958 3.93213 4.09799 3.9059C4.0664 3.87966 4.04232 3.84336 4.02879 3.80155C4.01526 3.75974 4.01287 3.71431 4.02194 3.67096L4.1881 2.87139L3.64471 2.33674C3.61516 2.30762 3.59379 2.26922 3.58327 2.22633C3.57274 2.18345 3.57353 2.13798 3.58554 2.0956C3.59755 2.05322 3.62024 2.01582 3.65077 1.98806C3.68131 1.9603 3.71835 1.94341 3.75725 1.93951L4.4697 1.87396L4.74453 1.11557C4.75941 1.07423 4.78473 1.03888 4.81727 1.014C4.84981 0.989116 4.88811 0.97583 4.92729 0.97583C4.96647 0.97583 5.00477 0.989116 5.03731 1.014C5.06986 1.03888 5.09517 1.07423 5.11005 1.11557L5.38476 1.87396L6.09721 1.93951C6.13619 1.94326 6.17333 1.96006 6.20398 1.98778C6.23463 2.0155 6.25742 2.05292 6.26951 2.09535C6.28159 2.13778 6.28242 2.18333 6.2719 2.22629C6.26137 2.26926 6.23997 2.30773 6.21036 2.33688L6.21108 2.33674Z" fill="#FFD700"/>
<path d="M9.72538 2.33674L9.18199 2.87139L9.34754 3.67096C9.35667 3.71437 9.35432 3.75988 9.34078 3.80176C9.32724 3.84365 9.30311 3.88001 9.27146 3.90627C9.2398 3.93252 9.20203 3.94749 9.16291 3.94928C9.1238 3.95107 9.08509 3.9396 9.05169 3.91633L8.44189 3.48838L7.83172 3.91633C7.79832 3.93947 7.75967 3.95083 7.72062 3.94897C7.68157 3.94712 7.64388 3.93213 7.61229 3.9059C7.5807 3.87966 7.55662 3.84336 7.54308 3.80155C7.52955 3.75974 7.52717 3.71431 7.53624 3.67096L7.70239 2.87139L7.159 2.33674C7.12945 2.30762 7.10808 2.26922 7.09756 2.22633C7.08704 2.18345 7.08783 2.13798 7.09984 2.0956C7.11184 2.05322 7.13453 2.01582 7.16507 1.98806C7.19561 1.9603 7.23264 1.94341 7.27155 1.93951L7.98399 1.87396L8.25883 1.11557C8.2737 1.07423 8.29902 1.03888 8.33156 1.014C8.36411 0.989116 8.4024 0.97583 8.44159 0.97583C8.48077 0.97583 8.51906 0.989116 8.55161 1.014C8.58415 1.03888 8.60947 1.07423 8.62435 1.11557L8.89906 1.87396L9.61151 1.93951C9.65049 1.94326 9.68763 1.96006 9.71828 1.98778C9.74893 2.0155 9.77172 2.05292 9.7838 2.09535C9.79588 2.13778 9.79671 2.18333 9.78619 2.22629C9.77567 2.26926 9.75426 2.30773 9.72465 2.33688L9.72538 2.33674Z" fill="#FFD700"/>
<path d="M13.2397 2.33674L12.6963 2.87139L12.8618 3.67096C12.871 3.71437 12.8686 3.75988 12.8551 3.80176C12.8415 3.84365 12.8174 3.88001 12.7858 3.90627C12.7541 3.93252 12.7163 3.94749 12.6772 3.94928C12.6381 3.95107 12.5994 3.9396 12.566 3.91633L11.9562 3.48838L11.346 3.91633C11.3126 3.93947 11.274 3.95083 11.2349 3.94897C11.1959 3.94712 11.1582 3.93213 11.1266 3.9059C11.095 3.87966 11.0709 3.84336 11.0574 3.80155C11.0438 3.75974 11.0415 3.71431 11.0505 3.67096L11.2167 2.87139L10.6733 2.33674C10.6438 2.30762 10.6224 2.26922 10.6119 2.22633C10.6013 2.18345 10.6021 2.13798 10.6141 2.0956C10.6261 2.05322 10.6488 2.01582 10.6794 1.98806C10.7099 1.9603 10.7469 1.94341 10.7858 1.93951L11.4983 1.87396L11.7731 1.11557C11.788 1.07423 11.8133 1.03888 11.8459 1.014C11.8784 0.989116 11.9167 0.97583 11.9559 0.97583C11.9951 0.97583 12.0334 0.989116 12.0659 1.014C12.0984 1.03888 12.1238 1.07423 12.1386 1.11557L12.4134 1.87396L13.1258 1.93951C13.1648 1.94326 13.2019 1.96006 13.2326 1.98778C13.2632 2.0155 13.286 2.05292 13.2981 2.09535C13.3102 2.13778 13.311 2.18333 13.3005 2.22629C13.29 2.26926 13.2686 2.30773 13.2389 2.33688L13.2397 2.33674Z" fill="#FFD700"/>
<path d="M16.754 2.33674L16.2106 2.87139L16.3761 3.67096C16.3853 3.71437 16.3829 3.75988 16.3694 3.80176C16.3558 3.84365 16.3317 3.88001 16.3 3.90627C16.2684 3.93252 16.2306 3.94749 16.1915 3.94928C16.1524 3.95107 16.1137 3.9396 16.0803 3.91633L15.4705 3.48838L14.8603 3.91633C14.8269 3.93947 14.7883 3.95083 14.7492 3.94897C14.7102 3.94712 14.6725 3.93213 14.6409 3.9059C14.6093 3.87966 14.5852 3.84336 14.5717 3.80155C14.5581 3.75974 14.5558 3.71431 14.5648 3.67096L14.731 2.87139L14.1876 2.33674C14.158 2.30762 14.1367 2.26922 14.1262 2.22633C14.1156 2.18345 14.1164 2.13798 14.1284 2.0956C14.1404 2.05322 14.1631 2.01582 14.1937 1.98806C14.2242 1.9603 14.2612 1.94341 14.3001 1.93951L15.0126 1.87396L15.2874 1.11557C15.3023 1.07423 15.3276 1.03888 15.3602 1.014C15.3927 0.989116 15.431 0.97583 15.4702 0.97583C15.5094 0.97583 15.5477 0.989116 15.5802 1.014C15.6127 1.03888 15.6381 1.07423 15.6529 1.11557L15.9276 1.87396L16.6401 1.93951C16.6791 1.94326 16.7162 1.96006 16.7469 1.98778C16.7775 2.0155 16.8003 2.05292 16.8124 2.09535C16.8245 2.13778 16.8253 2.18333 16.8148 2.22629C16.8043 2.26926 16.7829 2.30773 16.7532 2.33688L16.754 2.33674Z" fill="#FFD700"/>
</svg>
