<svg width="66" height="25" viewBox="0 0 66 25" fill="none" xmlns="http://www.w3.org/2000/svg">
<g filter="url(#filter0_bd_79_225)">
<rect x="4" y="6" width="58" height="17" rx="5" fill="white" fill-opacity="0.64" shape-rendering="crispEdges"/>
</g>
<path d="M34.5432 14.0617C34.2792 14.0617 34.0512 14.0154 33.8592 13.9229C33.6706 13.8303 33.5215 13.7034 33.4118 13.5423C33.3055 13.3777 33.2438 13.1926 33.2266 12.9869H33.8695C33.9003 13.1343 33.9758 13.2577 34.0958 13.3571C34.2158 13.4531 34.3649 13.5011 34.5432 13.5011C34.7352 13.5011 34.8912 13.4309 35.0112 13.2903C35.1346 13.1497 35.1963 12.9749 35.1963 12.7657C35.1963 12.5497 35.1346 12.3783 35.0112 12.2514C34.8912 12.1246 34.7386 12.0611 34.5535 12.0611C34.3992 12.0611 34.2655 12.0989 34.1523 12.1743C34.0392 12.2497 33.9586 12.344 33.9106 12.4571H33.2781L33.5866 10.4H35.5821V10.976H34.0803L33.9158 11.8091C33.9912 11.7269 34.0941 11.66 34.2243 11.6086C34.3546 11.5537 34.5003 11.5263 34.6615 11.5263C34.9186 11.5263 35.1329 11.5846 35.3043 11.7011C35.4758 11.8143 35.6061 11.9651 35.6952 12.1537C35.7843 12.3389 35.8289 12.5411 35.8289 12.7606C35.8289 13.0109 35.7741 13.2337 35.6643 13.4291C35.5581 13.6246 35.4072 13.7789 35.2118 13.892C35.0198 14.0051 34.7969 14.0617 34.5432 14.0617ZM37.9175 14.0617C37.5849 14.0617 37.3004 13.9846 37.0638 13.8303C36.8272 13.6726 36.6438 13.4549 36.5135 13.1771C36.3867 12.896 36.3232 12.5703 36.3232 12.2C36.3232 11.8331 36.3867 11.5091 36.5135 11.228C36.6438 10.9469 36.8272 10.7291 37.0638 10.5749C37.3004 10.4171 37.5849 10.3383 37.9175 10.3383C38.2501 10.3383 38.5347 10.4171 38.7712 10.5749C39.0078 10.7291 39.1895 10.9469 39.3164 11.228C39.4467 11.5091 39.5118 11.8331 39.5118 12.2C39.5118 12.5703 39.4467 12.896 39.3164 13.1771C39.1895 13.4549 39.0078 13.6726 38.7712 13.8303C38.5347 13.9846 38.2501 14.0617 37.9175 14.0617ZM37.9175 13.4703C38.1884 13.4703 38.4095 13.3571 38.5809 13.1309C38.7524 12.9046 38.8381 12.5943 38.8381 12.2C38.8381 11.8057 38.7524 11.4954 38.5809 11.2691C38.4095 11.0429 38.1884 10.9297 37.9175 10.9297C37.6432 10.9297 37.4204 11.0429 37.2489 11.2691C37.0809 11.4954 36.9969 11.8057 36.9969 12.2C36.9969 12.5943 37.0809 12.9046 37.2489 13.1309C37.4204 13.3571 37.6432 13.4703 37.9175 13.4703ZM40.031 12.7863V12.236H40.9979V11.3463H41.5585V12.236H42.5202V12.7863H41.5585V13.676H40.9979V12.7863H40.031ZM20.952 19.0617C20.592 19.0617 20.2766 18.9829 20.0057 18.8251C19.7383 18.6674 19.5275 18.4497 19.3732 18.172C19.2223 17.8909 19.1469 17.5669 19.1469 17.2C19.1469 16.8331 19.2223 16.5109 19.3732 16.2331C19.5275 15.952 19.7383 15.7326 20.0057 15.5749C20.2766 15.4171 20.592 15.3383 20.952 15.3383C21.3086 15.3383 21.6223 15.4171 21.8932 15.5749C22.164 15.7326 22.3749 15.952 22.5257 16.2331C22.6766 16.5109 22.752 16.8331 22.752 17.2C22.752 17.5669 22.6766 17.8909 22.5257 18.172C22.3749 18.4497 22.164 18.6674 21.8932 18.8251C21.6223 18.9829 21.3086 19.0617 20.952 19.0617ZM20.952 18.4703C21.2949 18.4703 21.5675 18.3571 21.7697 18.1309C21.9755 17.9046 22.0783 17.5943 22.0783 17.2C22.0783 16.8057 21.9755 16.4954 21.7697 16.2691C21.5675 16.0429 21.2949 15.9297 20.952 15.9297C20.6092 15.9297 20.3349 16.0429 20.1292 16.2691C19.9235 16.4954 19.8206 16.8057 19.8206 17.2C19.8206 17.5943 19.9235 17.9046 20.1292 18.1309C20.3349 18.3571 20.6092 18.4703 20.952 18.4703ZM23.3178 19V16.4491H23.899L23.9504 16.8811C24.0293 16.7303 24.1424 16.6103 24.2898 16.5211C24.4407 16.432 24.6173 16.3874 24.8195 16.3874C25.135 16.3874 25.3801 16.4869 25.555 16.6857C25.7298 16.8846 25.8173 17.176 25.8173 17.56V19H25.159V17.6217C25.159 17.4023 25.1144 17.2343 25.0253 17.1177C24.9361 17.0011 24.7973 16.9429 24.6087 16.9429C24.4235 16.9429 24.271 17.008 24.151 17.1383C24.0344 17.2686 23.9761 17.4503 23.9761 17.6834V19H23.3178ZM26.4467 19V15.2971H27.105V19H26.4467ZM28.1325 16.0531C28.0125 16.0531 27.9131 16.0171 27.8342 15.9451C27.7588 15.8731 27.7211 15.7823 27.7211 15.6726C27.7211 15.5629 27.7588 15.4737 27.8342 15.4051C27.9131 15.3331 28.0125 15.2971 28.1325 15.2971C28.2525 15.2971 28.3502 15.3331 28.4256 15.4051C28.5045 15.4737 28.5439 15.5629 28.5439 15.6726C28.5439 15.7823 28.5045 15.8731 28.4256 15.9451C28.3502 16.0171 28.2525 16.0531 28.1325 16.0531ZM27.8034 19V16.4491H28.4616V19H27.8034ZM29.1487 19V16.4491H29.7299L29.7813 16.8811C29.8602 16.7303 29.9733 16.6103 30.1207 16.5211C30.2716 16.432 30.4482 16.3874 30.6505 16.3874C30.9659 16.3874 31.211 16.4869 31.3859 16.6857C31.5607 16.8846 31.6482 17.176 31.6482 17.56V19H30.9899V17.6217C30.9899 17.4023 30.9453 17.2343 30.8562 17.1177C30.767 17.0011 30.6282 16.9429 30.4396 16.9429C30.2545 16.9429 30.1019 17.008 29.9819 17.1383C29.8653 17.2686 29.807 17.4503 29.807 17.6834V19H29.1487ZM33.5171 19.0617C33.2599 19.0617 33.0319 19.0069 32.8331 18.8971C32.6342 18.7874 32.4782 18.6331 32.3651 18.4343C32.2519 18.2354 32.1954 18.0057 32.1954 17.7451C32.1954 17.4811 32.2502 17.2463 32.3599 17.0406C32.4731 16.8349 32.6274 16.6754 32.8228 16.5623C33.0216 16.4457 33.2548 16.3874 33.5222 16.3874C33.7725 16.3874 33.9936 16.4423 34.1856 16.552C34.3776 16.6617 34.5268 16.8126 34.6331 17.0046C34.7428 17.1931 34.7976 17.404 34.7976 17.6371C34.7976 17.6749 34.7959 17.7143 34.7925 17.7554C34.7925 17.7966 34.7908 17.8394 34.7874 17.884H32.8485C32.8622 18.0829 32.9308 18.2389 33.0542 18.352C33.1811 18.4651 33.3336 18.5217 33.5119 18.5217C33.6456 18.5217 33.7571 18.4926 33.8462 18.4343C33.9388 18.3726 34.0074 18.2937 34.0519 18.1977H34.7205C34.6725 18.3589 34.5919 18.5063 34.4788 18.64C34.3691 18.7703 34.2319 18.8731 34.0674 18.9486C33.9062 19.024 33.7228 19.0617 33.5171 19.0617ZM33.5222 16.9223C33.3611 16.9223 33.2188 16.9686 33.0954 17.0611C32.9719 17.1503 32.8931 17.2874 32.8588 17.4726H34.1291C34.1188 17.3046 34.0571 17.1709 33.9439 17.0714C33.8308 16.972 33.6902 16.9223 33.5222 16.9223ZM38.2225 19.0617C37.859 19.0617 37.547 18.9846 37.2865 18.8303C37.0259 18.6726 36.8253 18.4549 36.6848 18.1771C36.5442 17.896 36.4739 17.572 36.4739 17.2051C36.4739 16.8383 36.5442 16.5143 36.6848 16.2331C36.8253 15.952 37.0259 15.7326 37.2865 15.5749C37.547 15.4171 37.859 15.3383 38.2225 15.3383C38.6545 15.3383 39.0076 15.4463 39.2819 15.6623C39.5596 15.8749 39.7328 16.1749 39.8013 16.5623H39.0762C39.0316 16.3669 38.9356 16.2143 38.7882 16.1046C38.6442 15.9914 38.4522 15.9349 38.2122 15.9349C37.8796 15.9349 37.619 16.048 37.4305 16.2743C37.2419 16.5006 37.1476 16.8109 37.1476 17.2051C37.1476 17.5994 37.2419 17.9097 37.4305 18.136C37.619 18.3589 37.8796 18.4703 38.2122 18.4703C38.4522 18.4703 38.6442 18.4189 38.7882 18.316C38.9356 18.2097 39.0316 18.064 39.0762 17.8789H39.8013C39.7328 18.2491 39.5596 18.5389 39.2819 18.748C39.0076 18.9571 38.6545 19.0617 38.2225 19.0617ZM41.5926 19.0617C41.3457 19.0617 41.1229 19.0051 40.924 18.892C40.7286 18.7789 40.5726 18.6229 40.456 18.424C40.3429 18.2217 40.2863 17.9886 40.2863 17.7246C40.2863 17.4606 40.3446 17.2291 40.4612 17.0303C40.5777 16.828 40.7337 16.6703 40.9292 16.5571C41.128 16.444 41.3509 16.3874 41.5977 16.3874C41.8412 16.3874 42.0606 16.444 42.256 16.5571C42.4549 16.6703 42.6109 16.828 42.724 17.0303C42.8406 17.2291 42.8989 17.4606 42.8989 17.7246C42.8989 17.9886 42.8406 18.2217 42.724 18.424C42.6109 18.6229 42.4549 18.7789 42.256 18.892C42.0572 19.0051 41.836 19.0617 41.5926 19.0617ZM41.5926 18.4909C41.764 18.4909 41.9132 18.4274 42.04 18.3006C42.1669 18.1703 42.2303 17.9783 42.2303 17.7246C42.2303 17.4709 42.1669 17.2806 42.04 17.1537C41.9132 17.0234 41.7657 16.9583 41.5977 16.9583C41.4229 16.9583 41.272 17.0234 41.1452 17.1537C41.0217 17.2806 40.96 17.4709 40.96 17.7246C40.96 17.9783 41.0217 18.1703 41.1452 18.3006C41.272 18.4274 41.4212 18.4909 41.5926 18.4909ZM44.444 19.0617C44.1252 19.0617 43.8783 18.9623 43.7035 18.7634C43.532 18.5646 43.4463 18.2731 43.4463 17.8891V16.4491H44.0995V17.8274C44.0995 18.0469 44.144 18.2149 44.2332 18.3314C44.3223 18.448 44.4629 18.5063 44.6549 18.5063C44.8366 18.5063 44.9858 18.4411 45.1023 18.3109C45.2223 18.1806 45.2823 17.9989 45.2823 17.7657V16.4491H45.9406V19H45.3595L45.308 18.568C45.2292 18.7189 45.1143 18.8389 44.9635 18.928C44.816 19.0171 44.6429 19.0617 44.444 19.0617ZM46.6164 19V16.4491H47.2027L47.2644 16.9274C47.3569 16.7629 47.4821 16.6326 47.6398 16.5366C47.8009 16.4371 47.9895 16.3874 48.2055 16.3874V17.0817H48.0204C47.8764 17.0817 47.7478 17.104 47.6347 17.1486C47.5215 17.1931 47.4324 17.2703 47.3672 17.38C47.3055 17.4897 47.2747 17.6423 47.2747 17.8377V19H46.6164ZM49.7097 19.0617C49.4834 19.0617 49.2846 19.0257 49.1132 18.9537C48.9417 18.8783 48.8046 18.7754 48.7017 18.6451C48.5989 18.5149 48.5372 18.364 48.5166 18.1926H49.18C49.2006 18.292 49.2554 18.3777 49.3446 18.4497C49.4372 18.5183 49.5554 18.5526 49.6994 18.5526C49.8434 18.5526 49.948 18.5234 50.0132 18.4651C50.0817 18.4069 50.116 18.34 50.116 18.2646C50.116 18.1549 50.068 18.0811 49.972 18.0434C49.876 18.0023 49.7423 17.9629 49.5709 17.9251C49.4612 17.9011 49.3497 17.872 49.2366 17.8377C49.1234 17.8034 49.0189 17.7606 48.9229 17.7091C48.8303 17.6543 48.7549 17.5857 48.6966 17.5034C48.6383 17.4177 48.6092 17.3131 48.6092 17.1897C48.6092 16.9634 48.6983 16.7731 48.8766 16.6189C49.0583 16.4646 49.312 16.3874 49.6377 16.3874C49.9394 16.3874 50.1794 16.4577 50.3577 16.5983C50.5394 16.7389 50.6474 16.9326 50.6817 17.1794H50.0594C50.0217 16.9909 49.8794 16.8966 49.6326 16.8966C49.5092 16.8966 49.4132 16.9206 49.3446 16.9686C49.2794 17.0166 49.2469 17.0766 49.2469 17.1486C49.2469 17.224 49.2966 17.284 49.396 17.3286C49.4954 17.3731 49.6274 17.4143 49.792 17.452C49.9703 17.4931 50.1332 17.5394 50.2806 17.5909C50.4314 17.6389 50.5514 17.7126 50.6406 17.812C50.7297 17.908 50.7743 18.0469 50.7743 18.2286C50.7777 18.3863 50.7366 18.5286 50.6509 18.6554C50.5652 18.7823 50.4417 18.8817 50.2806 18.9537C50.1194 19.0257 49.9292 19.0617 49.7097 19.0617ZM52.5969 19.0617C52.3397 19.0617 52.1117 19.0069 51.9129 18.8971C51.714 18.7874 51.558 18.6331 51.4449 18.4343C51.3317 18.2354 51.2752 18.0057 51.2752 17.7451C51.2752 17.4811 51.33 17.2463 51.4397 17.0406C51.5529 16.8349 51.7072 16.6754 51.9026 16.5623C52.1014 16.4457 52.3346 16.3874 52.602 16.3874C52.8523 16.3874 53.0734 16.4423 53.2654 16.552C53.4574 16.6617 53.6066 16.8126 53.7129 17.0046C53.8226 17.1931 53.8774 17.404 53.8774 17.6371C53.8774 17.6749 53.8757 17.7143 53.8723 17.7554C53.8723 17.7966 53.8706 17.8394 53.8672 17.884H51.9283C51.942 18.0829 52.0106 18.2389 52.134 18.352C52.2609 18.4651 52.4134 18.5217 52.5917 18.5217C52.7254 18.5217 52.8369 18.4926 52.926 18.4343C53.0186 18.3726 53.0872 18.2937 53.1317 18.1977H53.8003C53.7523 18.3589 53.6717 18.5063 53.5586 18.64C53.4489 18.7703 53.3117 18.8731 53.1472 18.9486C52.986 19.024 52.8026 19.0617 52.5969 19.0617ZM52.602 16.9223C52.4409 16.9223 52.2986 16.9686 52.1752 17.0611C52.0517 17.1503 51.9729 17.2874 51.9386 17.4726H53.2089C53.1986 17.3046 53.1369 17.1709 53.0237 17.0714C52.9106 16.972 52.77 16.9223 52.602 16.9223ZM55.4854 19.0617C55.2591 19.0617 55.0602 19.0257 54.8888 18.9537C54.7174 18.8783 54.5802 18.7754 54.4774 18.6451C54.3745 18.5149 54.3128 18.364 54.2922 18.1926H54.9557C54.9762 18.292 55.0311 18.3777 55.1202 18.4497C55.2128 18.5183 55.3311 18.5526 55.4751 18.5526C55.6191 18.5526 55.7237 18.5234 55.7888 18.4651C55.8574 18.4069 55.8917 18.34 55.8917 18.2646C55.8917 18.1549 55.8437 18.0811 55.7477 18.0434C55.6517 18.0023 55.518 17.9629 55.3465 17.9251C55.2368 17.9011 55.1254 17.872 55.0122 17.8377C54.8991 17.8034 54.7945 17.7606 54.6985 17.7091C54.606 17.6543 54.5305 17.5857 54.4722 17.5034C54.414 17.4177 54.3848 17.3131 54.3848 17.1897C54.3848 16.9634 54.474 16.7731 54.6522 16.6189C54.834 16.4646 55.0877 16.3874 55.4134 16.3874C55.7151 16.3874 55.9551 16.4577 56.1334 16.5983C56.3151 16.7389 56.4231 16.9326 56.4574 17.1794H55.8351C55.7974 16.9909 55.6551 16.8966 55.4082 16.8966C55.2848 16.8966 55.1888 16.9206 55.1202 16.9686C55.0551 17.0166 55.0225 17.0766 55.0225 17.1486C55.0225 17.224 55.0722 17.284 55.1717 17.3286C55.2711 17.3731 55.4031 17.4143 55.5677 17.452C55.746 17.4931 55.9088 17.5394 56.0562 17.5909C56.2071 17.6389 56.3271 17.7126 56.4162 17.812C56.5054 17.908 56.55 18.0469 56.55 18.2286C56.5534 18.3863 56.5122 18.5286 56.4265 18.6554C56.3408 18.7823 56.2174 18.8817 56.0562 18.9537C55.8951 19.0257 55.7048 19.0617 55.4854 19.0617Z" fill="black"/>
<ellipse cx="12" cy="14" rx="4" ry="4" fill="#7206FF"/>
<path d="M14.0722 14.142L10.9338 15.5113L11.1253 12.3984L14.0722 14.142Z" fill="#FFF3F3"/>
<defs>
<filter id="filter0_bd_79_225" x="0" y="0" width="66" height="27" filterUnits="userSpaceOnUse" color-interpolation-filters="sRGB">
<feFlood flood-opacity="0" result="BackgroundImageFix"/>
<feGaussianBlur in="BackgroundImageFix" stdDeviation="2"/>
<feComposite in2="SourceAlpha" operator="in" result="effect1_backgroundBlur_79_225"/>
<feColorMatrix in="SourceAlpha" type="matrix" values="0 0 0 0 0 0 0 0 0 0 0 0 0 0 0 0 0 0 127 0" result="hardAlpha"/>
<feOffset dy="-2"/>
<feGaussianBlur stdDeviation="2"/>
<feComposite in2="hardAlpha" operator="out"/>
<feColorMatrix type="matrix" values="0 0 0 0 0 0 0 0 0 0 0 0 0 0 0 0 0 0 0.25 0"/>
<feBlend mode="normal" in2="effect1_backgroundBlur_79_225" result="effect2_dropShadow_79_225"/>
<feBlend mode="normal" in="SourceGraphic" in2="effect2_dropShadow_79_225" result="shape"/>
</filter>
</defs>
</svg>
