<svg width="132" height="68" viewBox="0 0 132 68" fill="none" xmlns="http://www.w3.org/2000/svg">
<path d="M3.0849 49V17.5H23.6499V22.135H8.8449V30.775H22.2999V35.275H8.8449V44.365H23.6499V49H3.0849ZM38.0105 49C35.6705 49 33.7955 48.43 32.3855 47.29C30.9755 46.15 30.2705 44.125 30.2705 41.215V31.495H26.4455V26.68H30.2705L30.9455 20.695H36.0305V26.68H42.0605V31.495H36.0305V41.26C36.0305 42.34 36.2555 43.09 36.7055 43.51C37.1855 43.9 37.9955 44.095 39.1355 44.095H41.9255V49H38.0105ZM56.3797 49.54C54.1297 49.54 52.1347 49.06 50.3947 48.1C48.6547 47.14 47.2897 45.79 46.2997 44.05C45.3097 42.31 44.8147 40.3 44.8147 38.02C44.8147 35.71 45.2947 33.655 46.2547 31.855C47.2447 30.055 48.5947 28.66 50.3047 27.67C52.0447 26.65 54.0847 26.14 56.4247 26.14C58.6147 26.14 60.5497 26.62 62.2297 27.58C63.9097 28.54 65.2147 29.86 66.1447 31.54C67.1047 33.19 67.5847 35.035 67.5847 37.075C67.5847 37.405 67.5697 37.75 67.5397 38.11C67.5397 38.47 67.5247 38.845 67.4947 39.235H50.5297C50.6497 40.975 51.2497 42.34 52.3297 43.33C53.4397 44.32 54.7747 44.815 56.3347 44.815C57.5047 44.815 58.4797 44.56 59.2597 44.05C60.0697 43.51 60.6697 42.82 61.0597 41.98H66.9097C66.4897 43.39 65.7847 44.68 64.7947 45.85C63.8347 46.99 62.6347 47.89 61.1947 48.55C59.7847 49.21 58.1797 49.54 56.3797 49.54ZM56.4247 30.82C55.0147 30.82 53.7697 31.225 52.6897 32.035C51.6097 32.815 50.9197 34.015 50.6197 35.635H61.7347C61.6447 34.165 61.1047 32.995 60.1147 32.125C59.1247 31.255 57.8947 30.82 56.4247 30.82ZM82.4642 49.54C80.1842 49.54 78.1742 49.045 76.4342 48.055C74.6942 47.065 73.3142 45.685 72.2942 43.915C71.3042 42.145 70.8092 40.12 70.8092 37.84C70.8092 35.56 71.3042 33.535 72.2942 31.765C73.3142 29.995 74.6942 28.615 76.4342 27.625C78.1742 26.635 80.1842 26.14 82.4642 26.14C85.3142 26.14 87.7142 26.89 89.6642 28.39C91.6142 29.86 92.8592 31.9 93.3992 34.51H87.3242C87.0242 33.43 86.4242 32.59 85.5242 31.99C84.6542 31.36 83.6192 31.045 82.4192 31.045C80.8292 31.045 79.4792 31.645 78.3692 32.845C77.2592 34.045 76.7042 35.71 76.7042 37.84C76.7042 39.97 77.2592 41.635 78.3692 42.835C79.4792 44.035 80.8292 44.635 82.4192 44.635C83.6192 44.635 84.6542 44.335 85.5242 43.735C86.4242 43.135 87.0242 42.28 87.3242 41.17H93.3992C92.8592 43.69 91.6142 45.715 89.6642 47.245C87.7142 48.775 85.3142 49.54 82.4642 49.54ZM97.6116 49V16.6H103.372V30.1C104.122 28.87 105.127 27.91 106.387 27.22C107.677 26.5 109.147 26.14 110.797 26.14C113.557 26.14 115.687 27.01 117.187 28.75C118.717 30.49 119.482 33.04 119.482 36.4V49H113.767V36.94C113.767 35.02 113.377 33.55 112.597 32.53C111.847 31.51 110.647 31 108.997 31C107.377 31 106.027 31.57 104.947 32.71C103.897 33.85 103.372 35.44 103.372 37.48V49H97.6116ZM126.565 49.315C125.515 49.315 124.645 48.985 123.955 48.325C123.295 47.665 122.965 46.87 122.965 45.94C122.965 44.98 123.295 44.17 123.955 43.51C124.645 42.85 125.515 42.52 126.565 42.52C127.615 42.52 128.47 42.85 129.13 43.51C129.82 44.17 130.165 44.98 130.165 45.94C130.165 46.87 129.82 47.665 129.13 48.325C128.47 48.985 127.615 49.315 126.565 49.315Z" fill="#392F51"/>
</svg>
